# xmcd
#
# Track frame offsets: 
#        150
#        10257
#        28532
#        63777
#        96075
#        110477
#        125307
#        140577
#
# Disc length: 2576 seconds
#
# Revision: 23
# Processed by: cddbd v1.5.2PL0 Copyright (c) Steve Scherf et al.
# Submitted via: ExactAudioCopy v0.99pb4
#
DISCID=610a0e08
DTITLE=The Doors - Best Of The Doors - Disc Two
DYEAR=1985
DGENRE=Rock
TTITLE0=Hello, I Love You
TTITLE1=Roadhouse Blues
TTITLE2=L.A. Woman
TTITLE3=Riders on The Storm
TTITLE4=Touch Me
TTITLE5=Love Her Madly
TTITLE6=The Unknown Soldier
TTITLE7=The End
EXTD=Year: 1985\nLabel: WEA
EXTT0=
EXTT1=
EXTT2=
EXTT3=
EXTT4=
EXTT5=
EXTT6=
EXTT7=
PLAYORDER=
